<?xml version="1.0" encoding="utf-8"?>
<!-- Generator: Adobe Illustrator 26.0.1, SVG Export Plug-In . SVG Version: 6.00 Build 0)  -->
<svg version="1.1" id="Layer_1" xmlns="http://www.w3.org/2000/svg" xmlns:xlink="http://www.w3.org/1999/xlink" x="0px" y="0px"
	 viewBox="0 0 1925.7 211.7" style="enable-background:new 0 0 1925.7 211.7;" xml:space="preserve">
<style type="text/css">
	.st0{fill:#003659;}
	.st1{fill:#004D74;}
	.st2{fill:#01AAAC;}
	.st3{fill:#016073;}
	.st4{fill:#01848C;}
	.st5{fill:#62CBC6;}
</style>
<g id="Layer_2_00000143575592317113467430000017555524623892152472_">
	<g id="Layer_1-2">
		<path class="st0" d="M1921.2,211.5c-630.4,0-1260.8,0.1-1891.2,0.2c-24.7,0-32.3-1.4-29.5-9.3c2.7-7.4,0.6-15,0.6-22.6
			c55.7-5.7,111.7-11.1,169.3-14.5c62.5-3.8,125.9-5.1,189.2-6.6c66.8-1.5,133.6,0.4,200.2,5.8c89.7,7.1,178.9,14.3,273,14.2
			c116.5-0.1,229.2-6.5,341.4-15.4c72.1-5.7,145.1-10.7,219.2-13.3c47.2-1.7,93.5,1.4,139.3,4.5c49.3,3.3,99.3,5.6,147,10.9
			c66.3,7.4,134.7,6.7,203.3,6.1c13.9-0.1,29-1.9,40.8,2.1C1923.8,186.3,1928.4,198.9,1921.2,211.5z"/>
		<path class="st1" d="M1919.9,173.2c-69.2,3.5-138.8,4.8-206.7-1.2c-92-8.1-184.7-14.9-279.4-18.8c-45.6-1.9-91.1,1.9-134.8,5.1
			c-65,4.8-130.6,8.6-195.1,14.2c-93.8,8.1-190.7,9.7-288,9.8C716,182.5,623,172.1,527,166c-62.2-3.9-125.1-6.6-188.7-2.3
			c-11.5,0.8-24,0.3-36,0.4c-75.7,0.6-151.3,5-226.6,13.1c-24.6,2.7-49.3,2.8-74.6,2.7v-36.1c12.9-3.7,28.6-3.8,44.2-3
			c82.8,3.8,165.6,1.7,247.8-1.2c58.5-2,114.1-8.9,170.6-13.8c93.4-8.1,186.2-9.3,281.6-5.4c55.6,2.3,107.6,7.6,158.8,14
			c47.9,5.9,96.1,8.6,144.3,8.1c105.3-0.8,207.1-7.1,306.6-17.9c136.4-14.8,272.1-16.6,407.1,2.4c42.4,6,84.4,12.9,132.5,14
			c12.3,0.3,23.1,2,29.2,5.8C1922.7,155.6,1930.3,164.5,1919.9,173.2z"/>
		<path class="st2" d="M1.1,85.1V55.8c24-8.2,56.3-9.9,88.8-10.2c61.2-0.5,122.6-1.2,183.3,2.9C343,53.2,407.1,44.8,469.9,38
			c138.8-15,277.5-20.1,421.6-8.3c83.7,6.8,169.2,11.1,255.4,14.3c72.1,2.7,142.2,1.4,209.7-6.4c80.7-9.4,162.2-9.3,242.9,0.3
			c91.6,10.8,186.1,14.3,283.7,10.6c14.3-0.6,29-1,40.2,3c2.7,10.2,1.5,20.5,0.7,30.7c-20.8,6.7-45,3.8-67.3,1.7
			c-59.8-5.6-118.3-12.5-181.2-14.4c-48.3-1.5-95.7-1.7-143.1,2.3c-51.1,4.3-103.9,6.1-155.8,9c-43.4,2.4-89-0.5-131.9-4.1
			c-82.3-6.9-162.8-6.4-245.4,0.3c-90.9,7.5-183.2,6.1-275-0.5c-62-4.4-122.2-11.4-186.4-12.7c-80.9-1.7-152.8,8.4-226.7,16.2
			C228.3,88.9,142,90.4,55.3,90.3C36.7,90.2,16.7,89.4,1.1,85.1z"/>
		<path class="st3" d="M1920,146.1c-69.4-1.8-129.7-12.1-193.1-19.8c-86.7-10.4-176.1-11.7-268.5-6.5c-71.3,4-137,13.2-206.9,18.2
			c-99.8,7.1-200.6,11.3-302.1,5.3c-38.3-2.3-74-8.4-111.7-12.3c-105.6-10.7-211.9-12.6-317.9-5.7c-54.3,3.5-108.2,8.7-162,13.4
			c-99.9,8.7-203,9.6-306.3,5.6c-16.6-0.6-33.6-0.4-50.5-0.5v-27.1c45.2-11.7,100.4-13.6,155.4-14.8c61.2-1.3,122.3,0.6,183.4,2
			c66.7,1.5,131.7-3.2,196.4-6.9c101.6-5.8,203-5.8,304.8-1.9c49.2,1.9,93.9,9.2,142.2,12.3c12.9,0.8,25.8,1.9,38.3,3.2
			c88.3,9.1,170.7,1.2,252.3-8.5c164.5-19.4,330.2-21.3,497.2-3.5c37.6,4,75.4,5.9,113.2,5.5c14.1-0.1,29.3-0.2,39.3,4
			C1923.1,120.9,1929.9,133.6,1920,146.1z"/>
		<path class="st4" d="M1920,107.7c-84.9,3.5-163.4-6.2-242.6-12.6c-129.6-10.6-253.5-3.8-377.1,8.1c-49.9,4.8-98.5,11.3-149.3,14.8
			c-51.1,3.5-103.2-0.6-151.7-5.6C883.2,100.5,765.5,92.8,643,96.6c-70,2.1-139.7,5.6-209,9.5c-44.5,2.5-89.1,2.6-132.6,1
			c-95.5-3.5-188.7-3.1-279.7,7.7c-6.7,0.8-13.7,1.3-20.6,1.9V85.1c92.4,4.2,183.6,0,274.3-4.8c24.4-1.3,48.2-4.4,70.9-7.7
			C450.7,57.7,556.2,57.1,665,68c69.7,7,141.6,11.2,215.5,10.4c52.8-0.5,104.9-3,155.6-7.5c65.6-5.8,130.1-3.7,194.8,1.2
			c70.2,5.4,139.4,6.7,212,1.5c50.7-3.6,101.9-8.1,154.9-8.8c87.6-1.1,170.4,5.5,251.5,14.8c23.4,2.7,47,3.8,70.6,3.3
			C1927.6,91.2,1927.5,99.4,1920,107.7z"/>
		<path class="st5" d="M1920.3,51.4c-65.6,1.6-130.9,3.3-197.1,0.2c-45.6-2.1-89.8-5.5-131.8-10.7c-75.6-9.3-152-9.4-227.6-0.3
			c-87.2,10.4-175.6,8.7-265.7,5.3C998,42.1,901.4,33.1,802,28.3c-114-5.5-221.2,2.2-327.9,13.4C392,50.3,310.7,56,220.9,50.2
			c-72-4.6-148.4-3.6-219.8,5.6V19.7c101.3-3.5,200.6,1,300.5,5.9c62.2,3.1,124.3-1.2,184.3-7.2c83.4-8.3,165.5-18.7,255.7-16.2
			c92.1,2.6,182.8,8.1,272.8,14.5s177.8,6.2,265.5-3.6c48.5-5.4,98.4-9.5,149.8-11.9c73.9-3.5,143,1,210.9,9.4
			c37.9,4.7,76,9.4,114.6,13.4c56.8,6,111.1-0.4,165.8-4.1C1926.7,30.4,1928.1,40.9,1920.3,51.4z"/>
	</g>
</g>
</svg>
