<?xml version="1.0" encoding="utf-8"?>
<!-- Generator: Adobe Illustrator 25.2.1, SVG Export Plug-In . SVG Version: 6.00 Build 0)  -->
<svg version="1.1" id="Layer_1" xmlns="http://www.w3.org/2000/svg" xmlns:xlink="http://www.w3.org/1999/xlink" x="0px" y="0px"
	 viewBox="0 0 595.3 841.9" style="enable-background:new 0 0 595.3 841.9;" xml:space="preserve">
<style type="text/css">
	.st0{display:none;}
	.st1{fill:#C1D8DF;stroke:#000000;stroke-width:7;stroke-miterlimit:10;}
	.st2{fill:#A7C3C9;stroke:#000000;stroke-width:7;stroke-miterlimit:10;}
	.st3{stroke:#000000;stroke-width:7;stroke-miterlimit:10;}
	.st4{fill:#2D2D2D;stroke:#000000;stroke-width:4;stroke-miterlimit:10;}
	.st5{display:inline;}
	.st6{fill:none;stroke:#000000;stroke-miterlimit:10;}
</style>
<g id="Layer_1_1_" class="st0">
	
		<image style="display:inline;overflow:visible;enable-background:new    ;" width="504" height="766" xlink:href="14F14ED5.png"  transform="matrix(1 0 0 1 35.6812 37.9449)">
	</image>
</g>
<g id="Layer_2_1_">
	<path class="st1" d="M422.5,211.8c0,0,101.4,66.7,0,160.9c0,0,31.9,75.4,0,92.8c0,0-10.1,163.8-47.8,195.6
		c0,0,131.9,31.9,8.7,102.9c0,0-56.5,31.9-95.6,31.9c0,0-165.3,5.7-104.6-87.8c0,0-230.5-121.4-104.9-417.4
		c4.9-11.5,11.9-21.8,20.8-30.6C145.9,213.9,306.3,75.8,422.5,211.8z"/>
	<g>
		<path d="M192.8,706.2c7.7,0.1,15.3,0,23-0.2c7.6-0.2,15.3-0.5,22.8-1c15.2-1,30.3-2.5,45.1-5.2c7.5-1.3,14.8-2.9,22.1-4.8
			c3.7-0.9,7.2-2.1,10.8-3.2c3.5-1.3,7.1-2.4,10.6-3.8c14-5.5,27.1-13.2,38.5-23.6c-4.5,6.2-10.2,11.7-16.3,16.5
			c-6.1,4.8-12.9,8.8-20,12.1c-1.8,0.8-3.5,1.7-5.3,2.5l-5.4,2.2c-3.7,1.3-7.3,2.7-11.1,3.7c-1.9,0.6-3.7,1.1-5.6,1.6
			s-3.8,1-5.6,1.4l-5.7,1.2c-1.9,0.4-3.8,0.7-5.7,1.1c-15.3,2.7-30.8,3.8-46.2,3.7c-7.7,0-15.4-0.4-23.1-1.1
			C207.9,708.6,200.3,707.8,192.8,706.2z"/>
	</g>
	<g>
		<path d="M424,468.5c-5,2.3-9.9,4.1-15,5.9c-5.1,1.7-10.3,3.1-15.6,4c-2.7,0.4-5.4,0.8-8.2,0.8c-2.8,0.1-5.6-0.1-8.4-0.8
			c-0.7-0.1-1.4-0.4-2.1-0.6c-0.7-0.3-1.4-0.5-2-0.9c-1.3-0.7-2.6-1.6-3.7-2.6c-2.2-2.2-3.5-5.1-4-7.9s-0.5-5.6-0.1-8.3
			c0.4-2.7,1-5.3,1.7-7.9c1.5-5.1,3.5-10,5.8-14.8c4.5-9.5,9.8-18.6,15.4-27.5c-5.1,9.2-9.9,18.5-13.8,28.1
			c-1.9,4.8-3.6,9.8-4.8,14.8c-0.6,2.5-1,5-1.2,7.5s-0.1,5,0.5,7.3s1.6,4.3,3.3,5.8c0.8,0.7,1.7,1.3,2.8,1.8
			c0.5,0.3,1.1,0.4,1.6,0.6c0.6,0.1,1.1,0.3,1.7,0.4c2.3,0.4,4.8,0.5,7.2,0.3c2.5-0.2,4.9-0.6,7.4-1.2c4.9-1.1,9.8-2.7,14.5-4.6
			s9.5-4,13.9-6.3L424,468.5z"/>
	</g>
	<g>
		<path d="M279.2,397.7c4.1,3.3,7.8,7,11.4,11c3.6,3.9,6.9,8.1,9.8,12.6s5.4,9.3,7,14.6c0.8,2.6,1.3,5.4,1.4,8.3s-0.2,5.8-1,8.6
			c-0.9,2.8-2.2,5.5-4,7.9c-1.8,2.3-4,4.3-6.2,6c-4.6,3.4-9.7,5.6-14.9,7.4c-5.2,1.7-10.5,2.9-15.8,3.8s-10.7,1.4-16.2,1.5
			c-5.5,0-11-0.6-16.4-2s-10.8-3.7-15.3-7.2c-4.6-3.5-8.3-8-10.9-13c-2.7-5-4.3-10.4-5.2-15.8c-1.8-10.8-0.9-21.7,1.2-32.1
			c1.1-5.2,2.6-10.3,4.5-15.3c1-2.5,2-4.9,3.2-7.3c1.3-2.3,2.6-4.7,4.4-6.6c-1.5,2.2-2.5,4.6-3.4,7s-1.7,4.9-2.3,7.5
			c-1.3,5-2.3,10.1-2.9,15.3c-0.6,5.1-1,10.3-0.9,15.4s0.6,10.2,1.7,15.1c1.1,4.9,2.8,9.6,5.2,13.8c2.4,4.2,5.7,7.8,9.5,10.6
			c3.9,2.8,8.3,4.7,13.1,5.9c4.7,1.2,9.7,1.6,14.7,1.6s10.1-0.5,15.1-1.3c5.1-0.8,10-1.9,14.8-3.3c4.8-1.5,9.4-3.4,13.4-6.1
			c3.9-2.7,7.1-6.3,8.7-10.6c1.6-4.3,1.4-9.3,0.4-14.1c-1.1-4.8-3.1-9.6-5.6-14.1c-2.4-4.5-5.3-8.9-8.3-13.1
			c-1.5-2.1-3.1-4.2-4.8-6.2C282.7,401.6,281,399.6,279.2,397.7z"/>
	</g>
	<path class="st2" d="M422.4,259.8c11.5,5.8,20.5,15.5,25.5,27.3c10.1,24.3,14.9,64.9-53.4,80.2c-100.5,22.5-118-16.9-118-16.9
		s-29.3-55.1,11.3-82.6C325.5,242.2,359.5,228,422.4,259.8z"/>
	<path class="st3" d="M263.4,241.5c0,0-21.1,6.4-24.1,12.4C236.2,260,249.3,289.3,263.4,241.5z"/>
	<g>
		<path d="M409.3,236.1c1.4,0.8,2.6,1.7,3.9,2.6l1.8,1.4l1.8,1.5c0.6,0.5,1.3,0.9,1.9,1.4c0.6,0.4,1.1,1,1.4,1.7s0.5,1.5,0.6,2.4
			s0,1.9-0.3,3.1l-0.5,0.4c-1.3,0-2.2-0.2-3-0.4c-0.8-0.3-1.6-0.7-2.2-1.1c-0.6-0.5-1.1-1.1-1.4-1.8s-0.5-1.5-0.9-2.2l-1-2.1
			l-0.9-2.1c-0.6-1.4-1.2-2.9-1.7-4.4L409.3,236.1z"/>
	</g>
	<path class="st4" d="M369.8,275.6c0,0-11.6-28.5-35.5-4.1C334.3,271.5,328.5,289,369.8,275.6z"/>
	<path class="st4" d="M399.2,272.9c0,0-12.9-19.5-25.2,2.2C374,275.1,397.7,284.5,399.2,272.9z"/>
	<g class="st0">
		<path class="st5" d="M295.1,336.6c3.5,2.3,7.1,4.2,10.8,5.9c3.7,1.7,7.5,3.1,11.3,4.3c7.7,2.2,15.7,3,23.2,1.5
			c3.8-0.6,7.4-2,10.8-3.6c0.8-0.5,1.7-0.8,2.5-1.3l2.5-1.5c0.8-0.5,1.6-1.1,2.3-1.7l1.2-0.9l1.1-1c5.9-5,10.9-11.2,15.1-17.9l2.5-4
			l3,3.6c1.8,2.1,3.9,4.3,5.9,6.4c2.1,2.1,4.2,4,6.5,5.9c4.5,3.7,9.2,7.1,14.5,9.3c2.6,1,5.3,1.9,8,2.1c2.7,0.3,5.5,0,8.2-0.9
			c2.7-0.8,5.1-2.5,7.3-4.4c2.3-1.9,4.1-4.3,6-6.6c-1.3,2.7-2.7,5.5-4.8,7.8c-2,2.4-4.4,4.5-7.4,6c-2.9,1.5-6.2,2.2-9.5,2.2
			s-6.5-0.5-9.6-1.6c-6.1-2-11.6-5.3-16.6-9c-2.5-1.9-4.9-3.9-7.2-6c-1.1-1.1-2.3-2.1-3.4-3.3c-1.1-1.1-2.1-2.2-3.2-3.5l5.5-0.4
			c-4.4,7.3-9.8,14.1-16.6,19.6l-1.3,1l-1.4,1c-0.9,0.6-1.8,1.3-2.7,1.9c-1.9,1.1-3.8,2.2-5.9,3.1c-4,1.8-8.3,3-12.7,3.6
			c-4.4,0.5-8.8,0.4-13-0.3c-4.3-0.6-8.4-1.9-12.3-3.5C308.1,347.1,300.9,342.5,295.1,336.6z"/>
	</g>
</g>
<g>
	<path d="M424,331.3c-9.1-4.3-18.5-7.7-28-10s-19.2-3.3-28.6-2.3c-1.2,0.1-2.4,0.3-3.5,0.5l-1.8,0.3c-0.6,0.1-1.2,0.3-1.7,0.4
		l-1.7,0.4c-0.6,0.1-1.2,0.2-1.7,0.4c-1.1,0.3-2.3,0.7-3.4,1c-4.5,1.5-8.8,3.6-13,6c-8.2,5-15.5,11.7-22.4,19.2
		c4.5-9.1,11-17.3,19.3-23.7c4.2-3.1,8.8-5.7,13.8-7.7c5-1.9,10.2-3.1,15.4-3.7c10.6-1.1,21.2,0.6,30.9,4c4.9,1.7,9.6,3.9,14,6.4
		C416,325,420.3,327.9,424,331.3z"/>
</g>
<path class="st6" d="M659,402"/>
<path class="st6" d="M348.2,320.6"/>
<path class="st6" d="M218.8,309.7"/>
</svg>
